# This file uses centimeters as units for non-parametric coordinates.

v -0.500000 -0.000000 0.500000
v 0.500000 -0.000000 0.500000
v 0.500000 0.000000 -0.500000
v -0.500000 0.000000 -0.500000
v 0.500000 -0.000000 0.000000
v -0.500000 -0.000000 0.000000
v -0.000000 -0.000000 0.500000
v -0.000000 -0.000000 0.000000
v -0.000000 -0.000000 0.333333
v -0.500000 -0.000000 0.333333
v -0.333333 -0.000000 0.500000
v -0.333333 -0.000000 0.333333
v -0.166667 -0.000000 0.500000
v -0.166667 -0.000000 0.333333
v -0.333333 -0.000000 0.000000
v -0.500000 -0.000000 0.166667
v -0.333333 -0.000000 0.166667
v -0.000000 -0.000000 0.166667
v -0.166667 -0.000000 0.166667
v -0.166667 -0.000000 0.000000
v 0.500000 -0.000000 0.333333
v 0.166667 -0.000000 0.500000
v 0.166667 -0.000000 0.333333
v 0.333333 -0.000000 0.500000
v 0.333333 -0.000000 0.333333
v 0.166667 -0.000000 0.000000
v 0.166667 -0.000000 0.166667
v 0.500000 -0.000000 0.166667
v 0.333333 -0.000000 0.166667
v 0.333333 -0.000000 0.000000
v -0.000000 0.000000 -0.500000
v -0.500000 0.000000 -0.166667
v -0.000000 0.000000 -0.166667
v -0.333333 0.000000 -0.166667
v -0.166667 0.000000 -0.166667
v -0.333333 0.000000 -0.500000
v -0.500000 0.000000 -0.333333
v -0.333333 0.000000 -0.333333
v -0.000000 0.000000 -0.333333
v -0.166667 0.000000 -0.333333
v -0.166667 0.000000 -0.500000
v 0.500000 0.000000 -0.166667
v 0.166667 0.000000 -0.166667
v 0.333333 0.000000 -0.166667
v 0.166667 0.000000 -0.500000
v 0.166667 0.000000 -0.333333
v 0.500000 0.000000 -0.333333
v 0.333333 0.000000 -0.333333
v 0.333333 0.000000 -0.500000
vt 0.000000 0.000000
vt 1.000000 0.000000
vt 1.000000 1.000000
vt 0.000000 1.000000
vt 1.000000 0.500000
vt 0.000000 0.500000
vt 0.500000 0.000000
vt 0.500000 0.500000
vt 0.500000 0.166667
vt 0.000000 0.166667
vt 0.166667 0.000000
vt 0.166667 0.166667
vt 0.333333 0.000000
vt 0.333333 0.166667
vt 0.166667 0.500000
vt 0.000000 0.333333
vt 0.166667 0.333333
vt 0.500000 0.333333
vt 0.333333 0.333333
vt 0.333333 0.500000
vt 1.000000 0.166667
vt 0.666667 0.000000
vt 0.666667 0.166667
vt 0.833333 0.000000
vt 0.833333 0.166667
vt 0.666667 0.500000
vt 0.666667 0.333333
vt 1.000000 0.333333
vt 0.833333 0.333333
vt 0.833333 0.500000
vt 0.500000 1.000000
vt 0.000000 0.666667
vt 0.500000 0.666667
vt 0.166667 0.666667
vt 0.333333 0.666667
vt 0.166667 1.000000
vt 0.000000 0.833333
vt 0.166667 0.833333
vt 0.500000 0.833333
vt 0.333333 0.833333
vt 0.333333 1.000000
vt 1.000000 0.666667
vt 0.666667 0.666667
vt 0.833333 0.666667
vt 0.666667 1.000000
vt 0.666667 0.833333
vt 1.000000 0.833333
vt 0.833333 0.833333
vt 0.833333 1.000000
vn 0.000000 1.000000 0.000000
vn 0.000000 1.000000 0.000000
vn 0.000000 1.000000 0.000000
vn 0.000000 1.000000 0.000000
vn 0.000000 1.000000 0.000000
vn 0.000000 1.000000 0.000000
vn 0.000000 1.000000 0.000000
vn 0.000000 1.000000 0.000000
vn 0.000000 1.000000 0.000000
vn 0.000000 1.000000 0.000000
vn 0.000000 1.000000 0.000000
vn 0.000000 1.000000 0.000000
vn 0.000000 1.000000 0.000000
vn 0.000000 1.000000 0.000000
vn 0.000000 1.000000 0.000000
vn 0.000000 1.000000 0.000000
vn 0.000000 1.000000 0.000000
vn 0.000000 1.000000 0.000000
vn 0.000000 1.000000 0.000000
vn 0.000000 1.000000 0.000000
vn 0.000000 1.000000 0.000000
vn 0.000000 1.000000 0.000000
vn 0.000000 1.000000 0.000000
vn 0.000000 1.000000 0.000000
vn 0.000000 1.000000 0.000000
vn 0.000000 1.000000 0.000000
vn 0.000000 1.000000 0.000000
vn 0.000000 1.000000 0.000000
vn 0.000000 1.000000 0.000000
vn 0.000000 1.000000 0.000000
vn 0.000000 1.000000 0.000000
vn 0.000000 1.000000 0.000000
vn 0.000000 1.000000 0.000000
vn 0.000000 1.000000 0.000000
vn 0.000000 1.000000 0.000000
vn 0.000000 1.000000 0.000000
vn 0.000000 1.000000 0.000000
vn 0.000000 1.000000 0.000000
vn 0.000000 1.000000 0.000000
vn 0.000000 1.000000 0.000000
vn 0.000000 1.000000 0.000000
vn 0.000000 1.000000 0.000000
vn 0.000000 1.000000 0.000000
vn 0.000000 1.000000 0.000000
vn 0.000000 1.000000 0.000000
vn 0.000000 1.000000 0.000000
vn 0.000000 1.000000 0.000000
vn 0.000000 1.000000 0.000000
vn 0.000000 1.000000 0.000000
f 47/47/1 3/3/2 48/48/3
f 28/28/4 5/5/5 29/29/6
f 18/18/7 8/8/8 19/19/9
f 13/13/10 7/7/11 9/9/12
f 1/1/13 11/11/14 12/12/15
f 11/11/14 13/13/10 14/14/16
f 16/16/17 17/17/18 15/15/19
f 10/10/20 12/12/15 17/17/18
f 9/9/12 18/18/7 14/14/16
f 12/12/15 14/14/16 19/19/9
f 17/17/18 19/19/9 20/20/21
f 24/24/22 2/2/23 21/21/24
f 7/7/11 22/22/25 23/23/26
f 22/22/25 24/24/22 25/25/27
f 18/18/7 27/27/28 26/26/29
f 9/9/12 23/23/26 27/27/28
f 21/21/24 28/28/4 25/25/27
f 23/23/26 25/25/27 29/29/6
f 27/27/28 29/29/6 30/30/30
f 40/40/31 39/39/32 31/31/33
f 20/20/21 8/8/8 33/33/34
f 6/6/35 15/15/19 34/34/36
f 15/15/19 20/20/21 35/35/37
f 37/37/38 38/38/39 36/36/40
f 32/32/41 34/34/36 38/38/39
f 35/35/37 33/33/34 39/39/32
f 34/34/36 35/35/37 40/40/31
f 38/38/39 40/40/31 41/41/42
f 5/5/5 42/42/43 30/30/30
f 8/8/8 26/26/29 43/43/44
f 26/26/29 30/30/30 44/44/45
f 39/39/32 46/46/46 45/45/47
f 33/33/34 43/43/44 46/46/46
f 42/42/43 47/47/1 44/44/45
f 43/43/44 44/44/45 48/48/3
f 46/46/46 48/48/3 49/49/48
f 3/3/2 49/49/48 48/48/3
f 5/5/5 30/30/30 29/29/6
f 8/8/8 20/20/21 19/19/9
f 9/9/12 14/14/16 13/13/10
f 12/12/15 10/10/20 1/1/13
f 14/14/16 12/12/15 11/11/14
f 15/15/19 6/6/35 16/16/17
f 17/17/18 16/16/17 10/10/20
f 18/18/7 19/19/9 14/14/16
f 19/19/9 17/17/18 12/12/15
f 20/20/21 15/15/19 17/17/18
f 21/21/24 25/25/27 24/24/22
f 23/23/26 9/9/12 7/7/11
f 25/25/27 23/23/26 22/22/25
f 26/26/29 8/8/8 18/18/7
f 27/27/28 18/18/7 9/9/12
f 28/28/4 29/29/6 25/25/27
f 29/29/6 27/27/28 23/23/26
f 30/30/30 26/26/29 27/27/28
f 31/31/33 41/41/42 40/40/31
f 33/33/34 35/35/37 20/20/21
f 34/34/36 32/32/41 6/6/35
f 35/35/37 34/34/36 15/15/19
f 36/36/40 4/4/49 37/37/38
f 38/38/39 37/37/38 32/32/41
f 39/39/32 40/40/31 35/35/37
f 40/40/31 38/38/39 34/34/36
f 41/41/42 36/36/40 38/38/39
f 42/42/43 44/44/45 30/30/30
f 43/43/44 33/33/34 8/8/8
f 44/44/45 43/43/44 26/26/29
f 45/45/47 31/31/33 39/39/32
f 46/46/46 39/39/32 33/33/34
f 47/47/1 48/48/3 44/44/45
f 48/48/3 46/46/46 43/43/44
f 49/49/48 45/45/47 46/46/46
