{
  "accessors": [
    {
      "bufferView": 2,
      "componentType": 5126,
      "count": 4,
      "max": [
        8.1047563552856445,
        8.1047563552856445,
        0
      ],
      "min": [
        0,
        0,
        0
      ],
      "type": "VEC3"
    },
    {
      "bufferView": 2,
      "byteOffset": 48,
      "componentType": 5126,
      "count": 4,
      "max": [
        0,
        0,
        1
      ],
      "min": [
        0,
        0,
        1
      ],
      "type": "VEC3"
    },
    {
      "bufferView": 3,
      "componentType": 5126,
      "count": 4,
      "max": [
        1,
        0,
        0,
        1
      ],
      "min": [
        1,
        0,
        0,
        1
      ],
      "type": "VEC4"
    },
    {
      "bufferView": 1,
      "componentType": 5126,
      "count": 4,
      "max": [
        0.99989998340606689,
        0.99989998340606689
      ],
      "min": [
        9.9999997473787516e-05,
        9.9999997473787516e-05
      ],
      "type": "VEC2"
    },
    {
      "bufferView": 0,
      "componentType": 5125,
      "count": 6,
      "max": [
        3
      ],
      "min": [
        0
      ],
      "type": "SCALAR"
    },
    {
      "bufferView": 2,
      "byteOffset": 96,
      "componentType": 5126,
      "count": 7777,
      "max": [
        6.2610282897949219,
        4.295382022857666,
        9.7802715301513672
      ],
      "min": [
        1.8322222232818604,
        3.8565752506256104,
        0.21972799301147461
      ],
      "type": "VEC3"
    },
    {
      "bufferView": 2,
      "byteOffset": 93420,
      "componentType": 5126,
      "count": 7777,
      "max": [
        1,
        1,
        1
      ],
      "min": [
        -1,
        -1,
        -1
      ],
      "type": "VEC3"
    },
    {
      "bufferView": 3,
      "byteOffset": 64,
      "componentType": 5126,
      "count": 7777,
      "max": [
        0,
        0,
        0,
        1
      ],
      "min": [
        0,
        0,
        0,
        1
      ],
      "type": "VEC4"
    },
    {
      "bufferView": 0,
      "byteOffset": 24,
      "componentType": 5125,
      "count": 45006,
      "max": [
        7776
      ],
      "min": [
        0
      ],
      "type": "SCALAR"
    },
    {
      "bufferView": 2,
      "byteOffset": 186744,
      "componentType": 5126,
      "count": 189,
      "max": [
        5.4887433052062988,
        4.1920919418334961,
        0.36201900243759155
      ],
      "min": [
        2.747230052947998,
        3.9457852840423584,
        0.21916399896144867
      ],
      "type": "VEC3"
    },
    {
      "bufferView": 2,
      "byteOffset": 189012,
      "componentType": 5126,
      "count": 189,
      "max": [
        0.035600710660219193,
        0.54271215200424194,
        -0.83991885185241699
      ],
      "min": [
        -0.035600710660219193,
        -0.38057881593704224,
        -1
      ],
      "type": "VEC3"
    },
    {
      "bufferView": 3,
      "byteOffset": 124496,
      "componentType": 5126,
      "count": 189,
      "max": [
        0,
        0,
        0,
        1
      ],
      "min": [
        0,
        0,
        0,
        1
      ],
      "type": "VEC4"
    },
    {
      "bufferView": 0,
      "byteOffset": 180048,
      "componentType": 5125,
      "count": 708,
      "max": [
        188
      ],
      "min": [
        0
      ],
      "type": "SCALAR"
    },
    {
      "bufferView": 2,
      "byteOffset": 191280,
      "componentType": 5126,
      "count": 369,
      "max": [
        4.8232860565185547,
        4.271583080291748,
        8.5460491180419922
      ],
      "min": [
        4.5688662528991699,
        4.271583080291748,
        7.9065070152282715
      ],
      "type": "VEC3"
    },
    {
      "bufferView": 2,
      "byteOffset": 195708,
      "componentType": 5126,
      "count": 369,
      "max": [
        0,
        1,
        0
      ],
      "min": [
        0,
        1,
        0
      ],
      "type": "VEC3"
    },
    {
      "bufferView": 3,
      "byteOffset": 127520,
      "componentType": 5126,
      "count": 369,
      "max": [
        -0.99999958276748657,
        0,
        0.00027766931452788413,
        1
      ],
      "min": [
        -1,
        0,
        -0.00092100608162581921,
        1
      ],
      "type": "VEC4"
    },
    {
      "bufferView": 1,
      "byteOffset": 32,
      "componentType": 5126,
      "count": 369,
      "max": [
        0.91241300106048584,
        0.91436600685119629
      ],
      "min": [
        0.11270300298929214,
        0.13414099812507629
      ],
      "type": "VEC2"
    },
    {
      "bufferView": 0,
      "byteOffset": 182880,
      "componentType": 5125,
      "count": 1608,
      "max": [
        368
      ],
      "min": [
        0
      ],
      "type": "SCALAR"
    },
    {
      "bufferView": 2,
      "byteOffset": 200136,
      "componentType": 5126,
      "count": 710,
      "max": [
        6.1972851753234863,
        3.8615002632141113,
        9.6929349899291992
      ],
      "min": [
        1.9074711799621582,
        3.8331732749938965,
        0.30706501007080078
      ],
      "type": "VEC3"
    },
    {
      "bufferView": 2,
      "byteOffset": 208656,
      "componentType": 5126,
      "count": 710,
      "max": [
        0.86560845375061035,
        -0.50020158290863037,
        0.44062384963035583
      ],
      "min": [
        -0.86590278148651123,
        -0.99970954656600952,
        -0.4187314510345459
      ],
      "type": "VEC3"
    },
    {
      "bufferView": 3,
      "byteOffset": 133424,
      "componentType": 5126,
      "count": 710,
      "max": [
        0,
        0,
        0,
        1
      ],
      "min": [
        0,
        0,
        0,
        1
      ],
      "type": "VEC4"
    },
    {
      "bufferView": 0,
      "byteOffset": 189312,
      "componentType": 5125,
      "count": 3012,
      "max": [
        709
      ],
      "min": [
        0
      ],
      "type": "SCALAR"
    },
    {
      "bufferView": 2,
      "byteOffset": 217176,
      "componentType": 5126,
      "count": 271,
      "max": [
        4.7046360969543457,
        4.2725872993469238,
        6.7743210792541504
      ],
      "min": [
        3.1854090690612793,
        4.2725872993469238,
        6.5516448020935059
      ],
      "type": "VEC3"
    },
    {
      "bufferView": 2,
      "byteOffset": 220428,
      "componentType": 5126,
      "count": 271,
      "max": [
        0,
        1,
        0
      ],
      "min": [
        0,
        -1,
        0
      ],
      "type": "VEC3"
    },
    {
      "bufferView": 3,
      "byteOffset": 144784,
      "componentType": 5126,
      "count": 271,
      "max": [
        0,
        0,
        0,
        1
      ],
      "min": [
        0,
        0,
        0,
        1
      ],
      "type": "VEC4"
    },
    {
      "bufferView": 0,
      "byteOffset": 201360,
      "componentType": 5125,
      "count": 771,
      "max": [
        270
      ],
      "min": [
        0
      ],
      "type": "SCALAR"
    },
    {
      "bufferView": 2,
      "byteOffset": 223680,
      "componentType": 5126,
      "count": 469,
      "max": [
        6.1738271713256836,
        3.8331732749938965,
        9.3280010223388672
      ],
      "min": [
        1.9309291839599609,
        3.8331732749938965,
        0.68835997581481934
      ],
      "type": "VEC3"
    },
    {
      "bufferView": 2,
      "byteOffset": 229308,
      "componentType": 5126,
      "count": 469,
      "max": [
        0,
        -1,
        0
      ],
      "min": [
        0,
        -1,
        0
      ],
      "type": "VEC3"
    },
    {
      "bufferView": 3,
      "byteOffset": 149120,
      "componentType": 5126,
      "count": 469,
      "max": [
        1,
        0,
        0.11733667552471161,
        1
      ],
      "min": [
        0.99309217929840088,
        0,
        -0.10677214711904526,
        1
      ],
      "type": "VEC4"
    },
    {
      "bufferView": 1,
      "byteOffset": 2984,
      "componentType": 5126,
      "count": 469,
      "max": [
        1,
        1
      ],
      "min": [
        0,
        0
      ],
      "type": "VEC2"
    },
    {
      "bufferView": 0,
      "byteOffset": 204444,
      "componentType": 5125,
      "count": 2184,
      "max": [
        468
      ],
      "min": [
        0
      ],
      "type": "SCALAR"
    },
    {
      "bufferView": 2,
      "byteOffset": 234936,
      "componentType": 5126,
      "count": 289,
      "max": [
        5.3818569183349609,
        4.2821030616760254,
        9.6137714385986328
      ],
      "min": [
        2.5231292247772217,
        3.833132266998291,
        7.8382778167724609
      ],
      "type": "VEC3"
    },
    {
      "bufferView": 2,
      "byteOffset": 238404,
      "componentType": 5126,
      "count": 289,
      "max": [
        0.013500601053237915,
        1,
        0.060597710311412811
      ],
      "min": [
        -0.015100440010428429,
        -0.99816226959228516,
        -0.08219987154006958
      ],
      "type": "VEC3"
    },
    {
      "bufferView": 3,
      "byteOffset": 156624,
      "componentType": 5126,
      "count": 289,
      "max": [
        1,
        0.015154586173593998,
        0.08664432168006897,
        1
      ],
      "min": [
        -1,
        -0.013550388626754284,
        -0.84246665239334106,
        -1
      ],
      "type": "VEC4"
    },
    {
      "bufferView": 1,
      "byteOffset": 6736,
      "componentType": 5126,
      "count": 289,
      "max": [
        0.72345501184463501,
        0.79439902305603027
      ],
      "min": [
        0.28264099359512329,
        0.27285099029541016
      ],
      "type": "VEC2"
    },
    {
      "bufferView": 0,
      "byteOffset": 213180,
      "componentType": 5125,
      "count": 612,
      "max": [
        288
      ],
      "min": [
        0
      ],
      "type": "SCALAR"
    }
  ],
  "asset": {
    "extras": {
      "author": "Eternal Realm (https://sketchfab.com/EternalRealm)",
      "license": "CC-BY-4.0 (http://creativecommons.org/licenses/by/4.0/)",
      "source": "https://sketchfab.com/models/a5c4f111b45e48a6947b18c17e04f4f7",
      "title": "Galaxy S8"
    },
    "generator": "Sketchfab-3.20.7",
    "version": "2.0"
  },
  "bufferViews": [
    {
      "buffer": 0,
      "byteLength": 215628,
      "byteOffset": 0,
      "name": "floatBufferViews",
      "target": 34963
    },
    {
      "buffer": 0,
      "byteLength": 9048,
      "byteOffset": 215628,
      "byteStride": 8,
      "name": "floatBufferViews",
      "target": 34962
    },
    {
      "buffer": 0,
      "byteLength": 241872,
      "byteOffset": 224676,
      "byteStride": 12,
      "name": "floatBufferViews",
      "target": 34962
    },
    {
      "buffer": 0,
      "byteLength": 161248,
      "byteOffset": 466548,
      "byteStride": 16,
      "name": "floatBufferViews",
      "target": 34962
    }
  ],
  "buffers": [
    {
      "byteLength": 627796,
      "uri": "scene.bin"
    }
  ],
  "images": [
    {
      "uri": "textures/lens_baseColor.jpg"
    },
    {
      "uri": "textures/flash_baseColor.png"
    },
    {
      "uri": "textures/screen_baseColor.jpg"
    },
    {
      "uri": "textures/screen_emissive.jpg"
    },
    {
      "uri": "textures/Material_baseColor.png"
    },
    {
      "uri": "textures/Material_emissive.png"
    }
  ],
  "materials": [
    {
      "doubleSided": true,
      "emissiveFactor": [
        1,
        1,
        1
      ],
      "emissiveTexture": {
        "index": 5,
        "texCoord": 0
      },
      "name": "Material",
      "pbrMetallicRoughness": {
        "baseColorFactor": [
          1,
          1,
          1,
          1
        ],
        "baseColorTexture": {
          "index": 4,
          "texCoord": 0
        },
        "metallicFactor": 0,
        "roughnessFactor": 0.59999999999999998
      }
    },
    {
      "doubleSided": true,
      "emissiveFactor": [
        0,
        0,
        0
      ],
      "name": "base",
      "pbrMetallicRoughness": {
        "baseColorFactor": [
          0.18272736389999999,
          0.37316759760000001,
          1,
          1
        ],
        "metallicFactor": 0.50171493899999997,
        "roughnessFactor": 0.11413871949999999
      }
    },
    {
      "doubleSided": true,
      "emissiveFactor": [
        0,
        0,
        0
      ],
      "name": "black",
      "pbrMetallicRoughness": {
        "baseColorFactor": [
          0,
          0,
          0,
          1
        ],
        "metallicFactor": 0,
        "roughnessFactor": 0.59999999999999998
      }
    },
    {
      "doubleSided": true,
      "emissiveFactor": [
        0,
        0,
        0
      ],
      "name": "flash",
      "pbrMetallicRoughness": {
        "baseColorFactor": [
          1,
          1,
          1,
          1
        ],
        "baseColorTexture": {
          "index": 1,
          "texCoord": 0
        },
        "metallicFactor": 0.87366615849999996,
        "roughnessFactor": 0.065358231699999991
      }
    },
    {
      "doubleSided": true,
      "emissiveFactor": [
        0,
        0,
        0
      ],
      "name": "front",
      "pbrMetallicRoughness": {
        "baseColorFactor": [
          0.0096157397000000006,
          0.0096157397000000006,
          0.0096157397000000006,
          1
        ],
        "metallicFactor": 0.60537347559999999,
        "roughnessFactor": 0.028772865900000055
      }
    },
    {
      "doubleSided": true,
      "emissiveFactor": [
        0,
        0,
        0
      ],
      "name": "lens",
      "pbrMetallicRoughness": {
        "baseColorFactor": [
          1,
          1,
          1,
          1
        ],
        "baseColorTexture": {
          "index": 0,
          "texCoord": 0
        },
        "metallicFactor": 0.44073932929999998,
        "roughnessFactor": 0.040967987799999994
      }
    },
    {
      "doubleSided": true,
      "emissiveFactor": [
        0,
        0,
        0
      ],
      "name": "logo",
      "pbrMetallicRoughness": {
        "baseColorFactor": [
          0.59784488039999995,
          0.59784488039999995,
          0.59784488039999995,
          1
        ],
        "metallicFactor": 0,
        "roughnessFactor": 0.59999999999999998
      }
    },
    {
      "doubleSided": true,
      "emissiveFactor": [
        1,
        1,
        1
      ],
      "emissiveTexture": {
        "index": 3,
        "texCoord": 0
      },
      "name": "screen",
      "pbrMetallicRoughness": {
        "baseColorFactor": [
          1,
          1,
          1,
          1
        ],
        "baseColorTexture": {
          "index": 2,
          "texCoord": 0
        },
        "metallicFactor": 0,
        "roughnessFactor": 0
      }
    }
  ],
  "meshes": [
    {
      "primitives": [
        {
          "attributes": {
            "NORMAL": 1,
            "POSITION": 0,
            "TANGENT": 2,
            "TEXCOORD_0": 3
          },
          "indices": 4,
          "material": 0,
          "mode": 4
        }
      ]
    },
    {
      "primitives": [
        {
          "attributes": {
            "NORMAL": 6,
            "POSITION": 5,
            "TANGENT": 7
          },
          "indices": 8,
          "material": 1,
          "mode": 4
        }
      ]
    },
    {
      "primitives": [
        {
          "attributes": {
            "NORMAL": 10,
            "POSITION": 9,
            "TANGENT": 11
          },
          "indices": 12,
          "material": 2,
          "mode": 4
        }
      ]
    },
    {
      "primitives": [
        {
          "attributes": {
            "NORMAL": 14,
            "POSITION": 13,
            "TANGENT": 15,
            "TEXCOORD_0": 16
          },
          "indices": 17,
          "material": 3,
          "mode": 4
        }
      ]
    },
    {
      "primitives": [
        {
          "attributes": {
            "NORMAL": 19,
            "POSITION": 18,
            "TANGENT": 20
          },
          "indices": 21,
          "material": 4,
          "mode": 4
        }
      ]
    },
    {
      "primitives": [
        {
          "attributes": {
            "NORMAL": 23,
            "POSITION": 22,
            "TANGENT": 24
          },
          "indices": 25,
          "material": 6,
          "mode": 4
        }
      ]
    },
    {
      "primitives": [
        {
          "attributes": {
            "NORMAL": 27,
            "POSITION": 26,
            "TANGENT": 28,
            "TEXCOORD_0": 29
          },
          "indices": 30,
          "material": 7,
          "mode": 4
        }
      ]
    },
    {
      "primitives": [
        {
          "attributes": {
            "NORMAL": 32,
            "POSITION": 31,
            "TANGENT": 33,
            "TEXCOORD_0": 34
          },
          "indices": 35,
          "material": 5,
          "mode": 4
        }
      ]
    }
  ],
  "nodes": [
    {
      "children": [
        1
      ],
      "name": "RootNode (gltf orientation matrix)",
      "rotation": [
        -0.70710678118654746,
        -0,
        -0,
        0.70710678118654757
      ]
    },
    {
      "children": [
        2
      ],
      "name": "RootNode (model correction matrix)"
    },
    {
      "children": [
        3
      ],
      "matrix": [
        1,
        0,
        0,
        0,
        0,
        1,
        0,
        0,
        0,
        0,
        1,
        0,
        -4.0523781776428223,
        -4.0523781776428223,
        0,
        1
      ],
      "name": "phone.obj.cleaner.materialmerger.gles"
    },
    {
      "children": [
        4,
        5,
        6,
        7,
        8,
        9,
        10,
        11
      ],
      "name": ""
    },
    {
      "mesh": 0,
      "name": ""
    },
    {
      "mesh": 1,
      "name": ""
    },
    {
      "mesh": 2,
      "name": ""
    },
    {
      "mesh": 3,
      "name": ""
    },
    {
      "mesh": 4,
      "name": ""
    },
    {
      "mesh": 5,
      "name": ""
    },
    {
      "mesh": 6,
      "name": ""
    },
    {
      "mesh": 7,
      "name": ""
    }
  ],
  "samplers": [
    {
      "magFilter": 9729,
      "minFilter": 9987,
      "wrapS": 10497,
      "wrapT": 10497
    }
  ],
  "scene": 0,
  "scenes": [
    {
      "name": "OSG_Scene",
      "nodes": [
        0
      ]
    }
  ],
  "textures": [
    {
      "sampler": 0,
      "source": 0
    },
    {
      "sampler": 0,
      "source": 1
    },
    {
      "sampler": 0,
      "source": 2
    },
    {
      "sampler": 0,
      "source": 3
    },
    {
      "sampler": 0,
      "source": 4
    },
    {
      "sampler": 0,
      "source": 5
    }
  ]
}

